<svg width="1107" height="171" viewBox="0 0 1107 171" fill="none" xmlns="http://www.w3.org/2000/svg">
<g clip-path="url(#clip0_513_298)">
<path d="M39 47.5002V168H0V28L19.5 28.0002C30.2695 28.0002 39 36.7307 39 47.5002Z" fill="#E9E9E9"/>
<path d="M39.0005 146.5V168H0.000488281L39.0005 146.5Z" fill="#CDCDCD"/>
<path d="M84.0005 72.0001V156H44.0005V52L64.0005 52.0001C75.0462 52.0001 84.0005 60.9544 84.0005 72.0001Z" fill="#E9E9E9"/>
<path d="M84.0005 122.5V156H44.0005V144L84.0005 122.5Z" fill="#CDCDCD"/>
<path d="M128 96.5004V144H89V77L108.5 77.0004C119.27 77.0004 128 85.7308 128 96.5004Z" fill="#E9E9E9"/>
<path d="M89.0005 119.5V144H128V98.5005L89.0005 119.5Z" fill="#CDCDCD"/>
<path d="M321 39.1665C321 28.349 307.148 23.8738 300.825 32.6488L240.5 116.37L180.176 32.6488C173.853 23.8738 160 28.349 160 39.1665V168H190.8V99.4533L229.866 153.506C230.64 154.577 231.557 155.461 232.566 156.159C238.242 160.52 247.305 158.805 251.135 153.506L290.201 99.4533V168H321V39.1665Z" fill="#E9E9E9"/>
<path d="M366 92V168H336.001L336 77H351C359.285 77 366 83.7157 366 92Z" fill="#E9E9E9"/>
<path d="M366 43C366 51.2843 359.285 58 351 58C342.716 58 336 51.2843 336 43C336 34.7157 342.716 28 351 28C359.285 28 366 34.7157 366 43Z" fill="#E9E9E9"/>
<path d="M413.069 171C405.613 171 398.676 169.626 392.256 166.882C385.837 164.139 380.417 160.309 376 155.396L388.012 138.706C392.429 142.899 396.534 145.896 400.333 147.702C404.128 149.51 407.545 150.41 410.583 150.41C412.929 150.41 415.035 150.16 416.899 149.652C418.764 149.147 420.245 148.352 421.352 147.267C422.455 146.184 423.008 144.775 423.008 143.041C423.008 140.586 422.077 138.636 420.213 137.188C418.35 135.747 415.968 134.554 413.069 133.613C410.169 132.676 407.063 131.699 403.75 130.688C395.466 127.943 389.493 123.935 385.837 118.657C382.177 113.386 380.35 107.642 380.35 101.427C380.35 96.658 381.556 91.8573 383.974 87.0139C386.387 82.175 390.253 78.1288 395.57 74.8772C400.883 71.6259 407.752 70 416.175 70C423.766 70 430.185 70.7948 435.434 72.3845C440.679 73.9765 445.649 76.5771 450.344 80.1867L439.369 97.9592C436.744 95.7908 433.81 93.949 430.567 92.4336C427.322 90.9159 424.319 90.0851 421.559 89.941C419.073 89.7969 416.967 90.0851 415.243 90.8079C413.515 91.5307 412.169 92.4696 411.205 93.6247C410.238 94.7821 409.755 96.0092 409.755 97.3085C409.616 100.055 410.616 102.224 412.758 103.811C414.896 105.403 417.624 106.628 420.938 107.495C424.251 108.362 427.493 109.375 430.671 110.53C435.087 111.976 438.882 113.926 442.06 116.383C445.234 118.841 447.684 121.766 449.411 125.16C451.137 128.557 452 132.638 452 137.407C452 143.187 450.583 148.642 447.755 153.77C444.924 158.901 440.643 163.055 434.916 166.233C429.185 169.408 421.902 171 413.069 171L413.069 171Z" fill="#E9E9E9"/>
<path d="M513.583 77H502V49C502 40.7157 495.285 34 487 34H472V77H458V100H472V168H502V100H525C525 100 525 100 525 88.5C525 82.1487 519.889 77 513.583 77Z" fill="#E9E9E9"/>
<path d="M718 39.1665C718 28.349 704.148 23.8738 697.825 32.6488L637.5 116.37L577.176 32.6488C570.853 23.8738 557 28.349 557 39.1665V168H587.8V99.4533L626.866 153.506C627.64 154.577 628.557 155.461 629.566 156.159C635.242 160.52 644.305 158.805 648.135 153.506L687.201 99.4533V168H718V39.1665Z" fill="#E9E9E9"/>
<path d="M763.449 137.377L832 115.55C829.432 100.805 823.827 89.5163 815.167 81.721C806.526 73.907 795.484 70 782.044 70C772.034 70 762.961 72.254 754.807 76.7622C746.652 81.2891 740.148 87.3375 735.293 94.926C730.438 102.515 728 111.043 728 120.491C728 130.39 730.081 139.124 734.224 146.713C738.367 154.301 744.403 160.256 752.351 164.538C760.28 168.84 769.953 171 781.406 171C786.543 171 792.016 170.136 797.809 168.408C803.601 166.699 808.981 164.407 813.986 161.533L800.695 139.199C792.364 144.844 775.494 150.479 763.449 137.377ZM760.28 105.351C762.061 101.556 764.629 98.6074 768.004 96.5412C771.359 94.4562 775.258 93.4231 779.682 93.4231C785.549 93.4231 789.936 94.8131 792.879 97.6118C795.634 100.242 797.603 103.285 798.784 106.759L798.873 107.027L798.99 107.398C798.915 107.173 798.859 106.966 798.784 106.759L757.656 120.66C757.619 120.04 757.6 119.42 757.6 118.781C757.6 113.616 758.481 109.145 760.28 105.351Z" fill="#E9E9E9"/>
<path fill-rule="evenodd" clip-rule="evenodd" d="M883.5 171C895.726 171 906.825 165.648 915 156.941V168H945V15.0002C945 6.71592 938.285 0.000130227 930 0H915V84.059C906.825 75.3515 895.726 70 883.5 70C858.372 70 838 92.6096 838 120.5C838 148.39 858.372 171 883.5 171ZM893 146C902.506 146 910.772 140.483 915 132.36V107.64C910.772 99.5171 902.506 94 893 94C879.193 94 868 105.641 868 120C868 134.359 879.193 146 893 146Z" fill="#E9E9E9"/>
<path d="M990 92V168H960.001L960 77H975C983.285 77 990 83.7157 990 92Z" fill="#E9E9E9"/>
<path d="M990 43C990 51.2843 983.285 58 975 58C966.716 58 960 51.2843 960 43C960 34.7157 966.716 28 975 28C983.285 28 990 34.7157 990 43Z" fill="#E9E9E9"/>
<path fill-rule="evenodd" clip-rule="evenodd" d="M1045.5 171C1057.73 171 1068.83 165.649 1077 156.941V168H1107V92C1107 83.7157 1100.28 77 1092 77H1077V84.059C1068.83 75.3515 1057.73 70 1045.5 70C1020.37 70 1000 92.6096 1000 120.5C1000 148.39 1020.37 171 1045.5 171ZM1055 146C1064.51 146 1072.77 140.483 1077 132.36V107.64C1072.77 99.5171 1064.51 94 1055 94C1041.19 94 1030 105.641 1030 120C1030 134.359 1041.19 146 1055 146Z" fill="#E9E9E9"/>
</g>
<defs>
<clipPath id="clip0_513_298">
<rect width="1107" height="171" fill="white"/>
</clipPath>
</defs>
</svg>
